<svg xmlns="http://www.w3.org/2000/svg" width="23.329" height="21.686" viewBox="0 0 23.329 21.686">
  <g id="_22_location" data-name="22 location" transform="translate(-5.001 -9.155)">
    <path id="Path_6769" data-name="Path 6769" d="M54.966,30.411a2.954,2.954,0,1,0-2.954,2.954A2.954,2.954,0,0,0,54.966,30.411Zm-4.722,0a1.768,1.768,0,1,1,1.768,1.768A1.768,1.768,0,0,1,50.243,30.411Z" transform="translate(-35.346 -14.684)" fill="#fff"/>
    <path id="Path_6770" data-name="Path 6770" d="M28.3,29.538c0-.01,0-.02-.008-.029l-2.143-7.516a1.06,1.06,0,0,0-1.034-.812h-3.9c1.194-1.865,2.182-3.846,2.182-5.293a6.733,6.733,0,1,0-13.466,0c0,1.447.989,3.428,2.182,5.293h-3.9a1.06,1.06,0,0,0-1.034.812L5.036,29.508c0,.009-.006.02-.008.029a1.065,1.065,0,0,0,1.038,1.3h21.2a1.065,1.065,0,0,0,1.038-1.3ZM11.119,15.888a5.547,5.547,0,1,1,11.093,0c0,2.389-3.665,7.189-5.547,9.4C14.784,23.078,11.119,18.278,11.119,15.888ZM6.227,29.655,8.3,22.367H12.91a51.011,51.011,0,0,0,3.312,4.22.593.593,0,0,0,.887,0,51.013,51.013,0,0,0,3.313-4.22h4.6L27.1,29.655Z" transform="translate(0)" fill="#fff"/>
  </g>
</svg>
